<?xml version="1.0" encoding="utf-8" standalone="no"?><!DOCTYPE svg PUBLIC "-//W3C//DTD SVG 1.1//EN" "http://www.w3.org/Graphics/SVG/1.1/DTD/svg11.dtd"><svg width="2050px" height="1506px" version="1.1" xmlns="http://www.w3.org/2000/svg"><desc /><defs><linearGradient id="fs1" x1="0px" y1="0px" x2="1px" y2="0px"><stop offset="0%" stop-color="#D3D3D3" /><stop offset="100%" stop-color="#FFFFFF" /></linearGradient><linearGradient id="fs2" x1="0px" y1="0px" x2="1px" y2="0px"><stop offset="0%" stop-color="rgba(255,255,255,0.549)" /><stop offset="100%" stop-color="rgba(255,255,255,0.157)" /></linearGradient></defs><rect x="154px" y="32px" width="635px" height="163px" fill="url(#fs1)" /><path d="M 154 127.0833 C 153.9999 104.5777  438.299 86.33334  788.9998 86.33334 L 154 127.0833  154 32  789 32  789 86.33334 z " fill="url(#fs2)" /><rect x="154px" y="32px" width="635px" height="163px" fill="none" stroke="#000000" stroke-width="1px" stroke-dashoffset="0" stroke-linejoin="miter" stroke-miterlimit="10" /><text x="421px" y="49px" font-family="Arial" font-size="10pt" font-weight="bold" fill="#000000">GameProcessor</text><line x1="154px" y1="52px" x2="789px" y2="52px" stroke="#000000" stroke-width="1px" stroke-dashoffset="0" stroke-linejoin="miter" stroke-miterlimit="10" /><text x="156px" y="73px" font-family="Arial" font-size="10pt" fill="#000000">Superclass:</text><text x="156px" y="98px" font-family="Arial" font-size="10pt" fill="#000000">Subclasses:</text><line x1="154px" y1="105px" x2="789px" y2="105px" stroke="#000000" stroke-width="1px" stroke-dashoffset="0" stroke-linejoin="miter" stroke-miterlimit="10" /><line x1="471px" y1="105px" x2="471px" y2="195px" stroke="#000000" stroke-width="1px" stroke-dashoffset="0" stroke-linejoin="miter" stroke-miterlimit="10" /><text x="156px" y="122px" font-family="Arial" font-size="10pt" fill="#000000">Обработка</text><text x="224px" y="122px" font-family="Arial" font-size="10pt" fill="#000000">событий</text><text x="278px" y="122px" font-family="Arial" font-size="10pt" fill="#000000">ввода</text><text x="318px" y="122px" font-family="Arial" font-size="10pt" fill="#000000">от</text><text x="335px" y="122px" font-family="Arial" font-size="10pt" fill="#000000">ОС</text><text x="156px" y="139px" font-family="Arial" font-size="10pt" fill="#000000">Запуск</text><text x="202px" y="139px" font-family="Arial" font-size="10pt" fill="#000000">рендеринга</text><text x="156px" y="155px" font-family="Arial" font-size="10pt" fill="#000000">Передача</text><text x="220px" y="155px" font-family="Arial" font-size="10pt" fill="#000000">управления</text><text x="295px" y="155px" font-family="Arial" font-size="10pt" fill="#000000">ОС</text><text x="319px" y="155px" font-family="Arial" font-size="10pt" fill="#000000">для</text><text x="346px" y="155px" font-family="Arial" font-size="10pt" fill="#000000">её</text><text x="365px" y="155px" font-family="Arial" font-size="10pt" fill="#000000">операций</text><text x="156px" y="172px" font-family="Arial" font-size="10pt" fill="#000000">Хранение</text><text x="216px" y="172px" font-family="Arial" font-size="10pt" fill="#000000">игрового</text><text x="272px" y="172px" font-family="Arial" font-size="10pt" fill="#000000">режима</text><text x="156px" y="188px" font-family="Arial" font-size="10pt" fill="#000000">Вычисление</text><text x="234px" y="188px" font-family="Arial" font-size="10pt" fill="#000000">timeDelta</text><text x="473px" y="122px" font-family="Arial" font-size="10pt" fill="#000000">GameMode</text><rect x="300px" y="224px" width="300px" height="200px" fill="url(#fs1)" /><path d="M 300 340.6667 C 299.9999 313.0524  434.3145 290.6667  599.9999 290.6667 L 300 340.6667  300 224  600 224  600 290.6667 z " fill="url(#fs2)" /><rect x="300px" y="224px" width="300px" height="200px" fill="none" stroke="#000000" stroke-width="1px" stroke-dashoffset="0" stroke-linejoin="miter" stroke-miterlimit="10" /><text x="414px" y="241px" font-family="Arial" font-size="10pt" font-weight="bold" font-style="italic" fill="#000000">GameMode</text><line x1="300px" y1="244px" x2="600px" y2="244px" stroke="#000000" stroke-width="1px" stroke-dashoffset="0" stroke-linejoin="miter" stroke-miterlimit="10" /><text x="302px" y="265px" font-family="Arial" font-size="10pt" fill="#000000">Superclass:</text><text x="302px" y="290px" font-family="Arial" font-size="10pt" fill="#000000">Subclasses:</text><text x="402px" y="290px" font-family="Arial" font-size="10pt" fill="#000000">PreparingFieldMode,</text><text x="352px" y="306px" font-family="Arial" font-size="10pt" fill="#000000">AttackingRunMode,</text><text x="352px" y="323px" font-family="Arial" font-size="10pt" fill="#000000">GameStatisticsMode,</text><line x1="300px" y1="330px" x2="600px" y2="330px" stroke="#000000" stroke-width="1px" stroke-dashoffset="0" stroke-linejoin="miter" stroke-miterlimit="10" /><line x1="450px" y1="330px" x2="450px" y2="424px" stroke="#000000" stroke-width="1px" stroke-dashoffset="0" stroke-linejoin="miter" stroke-miterlimit="10" /><text x="302px" y="347px" font-family="Arial" font-size="10pt" fill="#000000">Рендеринг</text><text x="302px" y="364px" font-family="Arial" font-size="10pt" fill="#000000">Шаг</text><text x="329px" y="364px" font-family="Arial" font-size="10pt" fill="#000000">игрового</text><text x="385px" y="364px" font-family="Arial" font-size="10pt" fill="#000000">мира</text><text x="302px" y="380px" font-family="Arial" font-size="10pt" fill="#000000">Обработка</text><text x="369px" y="380px" font-family="Arial" font-size="10pt" fill="#000000">ввода</text><text x="302px" y="397px" font-family="Arial" font-size="10pt" fill="#000000">Смена</text><text x="345px" y="397px" font-family="Arial" font-size="10pt" fill="#000000">режима</text><text x="452px" y="347px" font-family="Arial" font-size="10pt" fill="#000000">BattleField</text><rect x="29px" y="477px" width="404px" height="200px" fill="url(#fs1)" /><path d="M 29.00002 593.6667 C 28.99996 566.0524  209.8768 543.6667  432.9998 543.6667 L 29 593.6667  29 477  433 477  433 543.6667 z " fill="url(#fs2)" /><rect x="29px" y="477px" width="404px" height="200px" fill="none" stroke="#000000" stroke-width="1px" stroke-dashoffset="0" stroke-linejoin="miter" stroke-miterlimit="10" /><text x="166px" y="494px" font-family="Arial" font-size="10pt" font-weight="bold" fill="#000000">PreparingFieldMode</text><line x1="29px" y1="497px" x2="433px" y2="497px" stroke="#000000" stroke-width="1px" stroke-dashoffset="0" stroke-linejoin="miter" stroke-miterlimit="10" /><text x="31px" y="518px" font-family="Arial" font-size="10pt" fill="#000000">Superclass:</text><text x="131px" y="518px" font-family="Arial" font-size="10pt" fill="#000000">GameMode</text><text x="31px" y="543px" font-family="Arial" font-size="10pt" fill="#000000">Subclasses:</text><line x1="29px" y1="550px" x2="433px" y2="550px" stroke="#000000" stroke-width="1px" stroke-dashoffset="0" stroke-linejoin="miter" stroke-miterlimit="10" /><line x1="231px" y1="550px" x2="231px" y2="677px" stroke="#000000" stroke-width="1px" stroke-dashoffset="0" stroke-linejoin="miter" stroke-miterlimit="10" /><text x="31px" y="567px" font-family="Arial" font-size="10pt" fill="#000000">Создавать</text><text x="98px" y="567px" font-family="Arial" font-size="10pt" fill="#000000">мир</text><text x="31px" y="584px" font-family="Arial" font-size="10pt" fill="#000000">Обработка</text><text x="99px" y="584px" font-family="Arial" font-size="10pt" fill="#000000">нажатий</text><text x="153px" y="584px" font-family="Arial" font-size="10pt" fill="#000000">на</text><text x="171px" y="584px" font-family="Arial" font-size="10pt" fill="#000000">слоты</text><text x="31px" y="600px" font-family="Arial" font-size="10pt" fill="#000000">Запуск</text><text x="77px" y="600px" font-family="Arial" font-size="10pt" fill="#000000">режима</text><text x="127px" y="600px" font-family="Arial" font-size="10pt" fill="#000000">битвы</text><text x="233px" y="567px" font-family="Arial" font-size="10pt" fill="#000000">PlayButtonControl</text><text x="233px" y="584px" font-family="Arial" font-size="10pt" fill="#000000">TowerChoiceMenuControl</text><text x="233px" y="600px" font-family="Arial" font-size="10pt" fill="#000000">BattleField</text><text x="233px" y="617px" font-family="Arial" font-size="10pt" fill="#000000">MapCreator</text><rect x="459px" y="481px" width="359px" height="200px" fill="url(#fs1)" /><path d="M 459 597.6667 C 458.9999 570.0524  619.7296 547.6667  817.9998 547.6667 L 459 597.6667  459 481  818 481  818 547.6667 z " fill="url(#fs2)" /><rect x="459px" y="481px" width="359px" height="200px" fill="none" stroke="#000000" stroke-width="1px" stroke-dashoffset="0" stroke-linejoin="miter" stroke-miterlimit="10" /><text x="579px" y="498px" font-family="Arial" font-size="10pt" font-weight="bold" fill="#000000">AttackingRunMode</text><line x1="459px" y1="501px" x2="818px" y2="501px" stroke="#000000" stroke-width="1px" stroke-dashoffset="0" stroke-linejoin="miter" stroke-miterlimit="10" /><text x="461px" y="522px" font-family="Arial" font-size="10pt" fill="#000000">Superclass:</text><text x="561px" y="522px" font-family="Arial" font-size="10pt" fill="#000000">GameMode</text><text x="461px" y="547px" font-family="Arial" font-size="10pt" fill="#000000">Subclasses:</text><line x1="459px" y1="554px" x2="818px" y2="554px" stroke="#000000" stroke-width="1px" stroke-dashoffset="0" stroke-linejoin="miter" stroke-miterlimit="10" /><line x1="638px" y1="554px" x2="638px" y2="681px" stroke="#000000" stroke-width="1px" stroke-dashoffset="0" stroke-linejoin="miter" stroke-miterlimit="10" /><text x="461px" y="571px" font-family="Arial" font-size="10pt" fill="#000000">Обработка</text><text x="528px" y="571px" font-family="Arial" font-size="10pt" fill="#000000">паузы</text><text x="461px" y="588px" font-family="Arial" font-size="10pt" fill="#000000">Обработка</text><text x="528px" y="588px" font-family="Arial" font-size="10pt" fill="#000000">жизни</text><text x="568px" y="588px" font-family="Arial" font-size="10pt" fill="#000000">юнитов</text><text x="461px" y="604px" font-family="Arial" font-size="10pt" fill="#000000">Переход</text><text x="517px" y="604px" font-family="Arial" font-size="10pt" fill="#000000">в</text><text x="528px" y="604px" font-family="Arial" font-size="10pt" fill="#000000">статистику</text><text x="640px" y="571px" font-family="Arial" font-size="10pt" fill="#000000">BattleField</text><text x="640px" y="588px" font-family="Arial" font-size="10pt" fill="#000000">TimeBarControl</text><text x="640px" y="604px" font-family="Arial" font-size="10pt" fill="#000000">StatisticsBarControl</text><text x="640px" y="621px" font-family="Arial" font-size="10pt" fill="#000000">UnitCreator</text><text x="640px" y="637px" font-family="Arial" font-size="10pt" fill="#000000">EnemyRandomizer</text><text x="640px" y="654px" font-family="Arial" font-size="10pt" fill="#000000">WayPointsPathList</text><rect x="861px" y="488px" width="358px" height="200px" fill="url(#fs1)" /><path d="M 861 604.6667 C 860.9999 577.0524  1021.282 554.6667  1219 554.6667 L 861 604.6667  861 488  1219 488  1219 554.6667 z " fill="url(#fs2)" /><rect x="861px" y="488px" width="358px" height="200px" fill="none" stroke="#000000" stroke-width="1px" stroke-dashoffset="0" stroke-linejoin="miter" stroke-miterlimit="10" /><text x="972px" y="505px" font-family="Arial" font-size="10pt" font-weight="bold" fill="#000000">GameStastisticsMode</text><line x1="861px" y1="508px" x2="1219px" y2="508px" stroke="#000000" stroke-width="1px" stroke-dashoffset="0" stroke-linejoin="miter" stroke-miterlimit="10" /><text x="863px" y="529px" font-family="Arial" font-size="10pt" fill="#000000">Superclass:</text><text x="963px" y="529px" font-family="Arial" font-size="10pt" fill="#000000">GameMode</text><text x="863px" y="554px" font-family="Arial" font-size="10pt" fill="#000000">Subclasses:</text><line x1="861px" y1="561px" x2="1219px" y2="561px" stroke="#000000" stroke-width="1px" stroke-dashoffset="0" stroke-linejoin="miter" stroke-miterlimit="10" /><line x1="1040px" y1="561px" x2="1040px" y2="688px" stroke="#000000" stroke-width="1px" stroke-dashoffset="0" stroke-linejoin="miter" stroke-miterlimit="10" /><text x="863px" y="578px" font-family="Arial" font-size="10pt" fill="#000000">Вывод</text><text x="907px" y="578px" font-family="Arial" font-size="10pt" fill="#000000">статистики</text><text x="863px" y="595px" font-family="Arial" font-size="10pt" fill="#000000">Переход</text><text x="919px" y="595px" font-family="Arial" font-size="10pt" fill="#000000">в</text><text x="930px" y="595px" font-family="Arial" font-size="10pt" fill="#000000">подготовку</text><text x="1042px" y="578px" font-family="Arial" font-size="10pt" fill="#000000">BattleField</text><text x="1042px" y="595px" font-family="Arial" font-size="10pt" fill="#000000">GameFinalStatisticsControl</text><rect x="291px" y="714px" width="300px" height="193px" fill="url(#fs1)" /><path d="M 291 826.5833 C 290.9999 799.9355  425.3145 778.3333  590.9999 778.3333 L 291 826.5833  291 714  591 714  591 778.3333 z " fill="url(#fs2)" /><rect x="291px" y="714px" width="300px" height="193px" fill="none" stroke="#000000" stroke-width="1px" stroke-dashoffset="0" stroke-linejoin="miter" stroke-miterlimit="10" /><text x="407px" y="731px" font-family="Arial" font-size="10pt" font-weight="bold" fill="#000000">BattleField</text><line x1="291px" y1="734px" x2="591px" y2="734px" stroke="#000000" stroke-width="1px" stroke-dashoffset="0" stroke-linejoin="miter" stroke-miterlimit="10" /><text x="293px" y="755px" font-family="Arial" font-size="10pt" fill="#000000">Superclass:</text><text x="293px" y="780px" font-family="Arial" font-size="10pt" fill="#000000">Subclasses:</text><line x1="291px" y1="787px" x2="591px" y2="787px" stroke="#000000" stroke-width="1px" stroke-dashoffset="0" stroke-linejoin="miter" stroke-miterlimit="10" /><line x1="441px" y1="787px" x2="441px" y2="907px" stroke="#000000" stroke-width="1px" stroke-dashoffset="0" stroke-linejoin="miter" stroke-miterlimit="10" /><text x="293px" y="804px" font-family="Arial" font-size="10pt" fill="#000000">Рендеринг</text><text x="361px" y="804px" font-family="Arial" font-size="10pt" fill="#000000">юнитов</text><text x="293px" y="821px" font-family="Arial" font-size="10pt" fill="#000000">Запуск</text><text x="339px" y="821px" font-family="Arial" font-size="10pt" fill="#000000">хода</text><text x="372px" y="821px" font-family="Arial" font-size="10pt" fill="#000000">юнитов</text><text x="443px" y="804px" font-family="Arial" font-size="10pt" fill="#000000">Enemy</text><text x="443px" y="821px" font-family="Arial" font-size="10pt" fill="#000000">TowerSlot</text><text x="443px" y="837px" font-family="Arial" font-size="10pt" fill="#000000">Tower</text><text x="443px" y="854px" font-family="Arial" font-size="10pt" fill="#000000">PathCell</text><text x="443px" y="870px" font-family="Arial" font-size="10pt" fill="#000000">BackGroundCell</text><text x="443px" y="887px" font-family="Arial" font-size="10pt" fill="#000000">Shot</text><rect x="24px" y="964px" width="319px" height="200px" fill="url(#fs1)" /><path d="M 24.00002 1080.667 C 23.99997 1053.052  166.8211 1030.667  342.9999 1030.667 L 24 1080.667  24 964  343 964  343 1030.667 z " fill="url(#fs2)" /><rect x="24px" y="964px" width="319px" height="200px" fill="none" stroke="#000000" stroke-width="1px" stroke-dashoffset="0" stroke-linejoin="miter" stroke-miterlimit="10" /><text x="162px" y="981px" font-family="Arial" font-size="10pt" font-weight="bold" fill="#000000">Enemy</text><line x1="24px" y1="984px" x2="343px" y2="984px" stroke="#000000" stroke-width="1px" stroke-dashoffset="0" stroke-linejoin="miter" stroke-miterlimit="10" /><text x="26px" y="1005px" font-family="Arial" font-size="10pt" fill="#000000">Superclass:</text><text x="26px" y="1030px" font-family="Arial" font-size="10pt" fill="#000000">Subclasses:</text><line x1="24px" y1="1037px" x2="343px" y2="1037px" stroke="#000000" stroke-width="1px" stroke-dashoffset="0" stroke-linejoin="miter" stroke-miterlimit="10" /><line x1="183px" y1="1037px" x2="183px" y2="1164px" stroke="#000000" stroke-width="1px" stroke-dashoffset="0" stroke-linejoin="miter" stroke-miterlimit="10" /><text x="26px" y="1054px" font-family="Arial" font-size="10pt" fill="#000000">Отобразить</text><text x="98px" y="1054px" font-family="Arial" font-size="10pt" fill="#000000">танк</text><text x="26px" y="1071px" font-family="Arial" font-size="10pt" fill="#000000">Передвинуть</text><text x="108px" y="1071px" font-family="Arial" font-size="10pt" fill="#000000">танк</text><text x="26px" y="1087px" font-family="Arial" font-size="10pt" fill="#000000">Предсказать</text><text x="106px" y="1087px" font-family="Arial" font-size="10pt" fill="#000000">позицию</text><text x="26px" y="1104px" font-family="Arial" font-size="10pt" fill="#000000">Сообщить</text><text x="91px" y="1104px" font-family="Arial" font-size="10pt" fill="#000000">уровень</text><text x="144px" y="1104px" font-family="Arial" font-size="10pt" fill="#000000">HP</text><text x="185px" y="1054px" font-family="Arial" font-size="10pt" fill="#000000">WayPointsPath</text><rect x="409px" y="965px" width="300px" height="200px" fill="url(#fs1)" /><path d="M 409 1081.667 C 408.9999 1054.052  543.3145 1031.667  708.9999 1031.667 L 409 1081.667  409 965  709 965  709 1031.667 z " fill="url(#fs2)" /><rect x="409px" y="965px" width="300px" height="200px" fill="none" stroke="#000000" stroke-width="1px" stroke-dashoffset="0" stroke-linejoin="miter" stroke-miterlimit="10" /><text x="539px" y="982px" font-family="Arial" font-size="10pt" font-weight="bold" fill="#000000">Tower</text><line x1="409px" y1="985px" x2="709px" y2="985px" stroke="#000000" stroke-width="1px" stroke-dashoffset="0" stroke-linejoin="miter" stroke-miterlimit="10" /><text x="411px" y="1006px" font-family="Arial" font-size="10pt" fill="#000000">Superclass:</text><text x="411px" y="1031px" font-family="Arial" font-size="10pt" fill="#000000">Subclasses:</text><line x1="409px" y1="1038px" x2="709px" y2="1038px" stroke="#000000" stroke-width="1px" stroke-dashoffset="0" stroke-linejoin="miter" stroke-miterlimit="10" /><line x1="559px" y1="1038px" x2="559px" y2="1165px" stroke="#000000" stroke-width="1px" stroke-dashoffset="0" stroke-linejoin="miter" stroke-miterlimit="10" /><text x="411px" y="1055px" font-family="Arial" font-size="10pt" fill="#000000">Отобразить</text><text x="483px" y="1055px" font-family="Arial" font-size="10pt" fill="#000000">башню</text><text x="411px" y="1072px" font-family="Arial" font-size="10pt" fill="#000000">Выстрелить</text><text x="485px" y="1072px" font-family="Arial" font-size="10pt" fill="#000000">по</text><text x="503px" y="1072px" font-family="Arial" font-size="10pt" fill="#000000">танку</text><text x="561px" y="1055px" font-family="Arial" font-size="10pt" fill="#000000">Enemy</text><rect x="768px" y="967px" width="317px" height="200px" fill="url(#fs1)" /><path d="M 768 1083.667 C 767.9999 1056.052  909.9256 1033.667  1085 1033.667 L 768 1083.667  768 967  1085 967  1085 1033.667 z " fill="url(#fs2)" /><rect x="768px" y="967px" width="317px" height="200px" fill="none" stroke="#000000" stroke-width="1px" stroke-dashoffset="0" stroke-linejoin="miter" stroke-miterlimit="10" /><text x="912px" y="984px" font-family="Arial" font-size="10pt" font-weight="bold" fill="#000000">Shot</text><line x1="768px" y1="987px" x2="1085px" y2="987px" stroke="#000000" stroke-width="1px" stroke-dashoffset="0" stroke-linejoin="miter" stroke-miterlimit="10" /><text x="770px" y="1008px" font-family="Arial" font-size="10pt" fill="#000000">Superclass:</text><text x="770px" y="1033px" font-family="Arial" font-size="10pt" fill="#000000">Subclasses:</text><line x1="768px" y1="1040px" x2="1085px" y2="1040px" stroke="#000000" stroke-width="1px" stroke-dashoffset="0" stroke-linejoin="miter" stroke-miterlimit="10" /><line x1="926px" y1="1040px" x2="926px" y2="1167px" stroke="#000000" stroke-width="1px" stroke-dashoffset="0" stroke-linejoin="miter" stroke-miterlimit="10" /><text x="770px" y="1057px" font-family="Arial" font-size="10pt" fill="#000000">Отобразить</text><text x="842px" y="1057px" font-family="Arial" font-size="10pt" fill="#000000">выстрел</text><text x="770px" y="1074px" font-family="Arial" font-size="10pt" fill="#000000">Передвинуть</text><text x="852px" y="1074px" font-family="Arial" font-size="10pt" fill="#000000">выстрел</text><text x="770px" y="1090px" font-family="Arial" font-size="10pt" fill="#000000">Отнять</text><text x="815px" y="1090px" font-family="Arial" font-size="10pt" fill="#000000">HP</text><text x="837px" y="1090px" font-family="Arial" font-size="10pt" fill="#000000">у</text><text x="848px" y="1090px" font-family="Arial" font-size="10pt" fill="#000000">цели</text><text x="928px" y="1057px" font-family="Arial" font-size="10pt" fill="#000000">Enemy</text><rect x="34px" y="1203px" width="300px" height="200px" fill="url(#fs1)" /><path d="M 34.00002 1319.667 C 33.99996 1292.052  168.3145 1269.667  333.9999 1269.667 L 34 1319.667  34 1203  334 1203  334 1269.667 z " fill="url(#fs2)" /><rect x="34px" y="1203px" width="300px" height="200px" fill="none" stroke="#000000" stroke-width="1px" stroke-dashoffset="0" stroke-linejoin="miter" stroke-miterlimit="10" /><text x="151px" y="1220px" font-family="Arial" font-size="10pt" font-weight="bold" fill="#000000">TowerSlot</text><line x1="34px" y1="1223px" x2="334px" y2="1223px" stroke="#000000" stroke-width="1px" stroke-dashoffset="0" stroke-linejoin="miter" stroke-miterlimit="10" /><text x="36px" y="1244px" font-family="Arial" font-size="10pt" fill="#000000">Superclass:</text><text x="36px" y="1269px" font-family="Arial" font-size="10pt" fill="#000000">Subclasses:</text><line x1="34px" y1="1276px" x2="334px" y2="1276px" stroke="#000000" stroke-width="1px" stroke-dashoffset="0" stroke-linejoin="miter" stroke-miterlimit="10" /><line x1="184px" y1="1276px" x2="184px" y2="1403px" stroke="#000000" stroke-width="1px" stroke-dashoffset="0" stroke-linejoin="miter" stroke-miterlimit="10" /><text x="36px" y="1293px" font-family="Arial" font-size="10pt" fill="#000000">Отобразить</text><text x="108px" y="1293px" font-family="Arial" font-size="10pt" fill="#000000">слот</text><rect x="382px" y="1198px" width="333px" height="200px" fill="url(#fs1)" /><path d="M 382 1314.667 C 381.9999 1287.052  531.0891 1264.667  714.9998 1264.667 L 382 1314.667  382 1198  715 1198  715 1264.667 z " fill="url(#fs2)" /><rect x="382px" y="1198px" width="333px" height="200px" fill="none" stroke="#000000" stroke-width="1px" stroke-dashoffset="0" stroke-linejoin="miter" stroke-miterlimit="10" /><text x="522px" y="1215px" font-family="Arial" font-size="10pt" font-weight="bold" fill="#000000">PathCell</text><line x1="382px" y1="1218px" x2="715px" y2="1218px" stroke="#000000" stroke-width="1px" stroke-dashoffset="0" stroke-linejoin="miter" stroke-miterlimit="10" /><text x="384px" y="1239px" font-family="Arial" font-size="10pt" fill="#000000">Superclass:</text><text x="384px" y="1264px" font-family="Arial" font-size="10pt" fill="#000000">Subclasses:</text><line x1="382px" y1="1271px" x2="715px" y2="1271px" stroke="#000000" stroke-width="1px" stroke-dashoffset="0" stroke-linejoin="miter" stroke-miterlimit="10" /><line x1="548px" y1="1271px" x2="548px" y2="1398px" stroke="#000000" stroke-width="1px" stroke-dashoffset="0" stroke-linejoin="miter" stroke-miterlimit="10" /><text x="384px" y="1288px" font-family="Arial" font-size="10pt" fill="#000000">Отобразить</text><text x="456px" y="1288px" font-family="Arial" font-size="10pt" fill="#000000">клетку</text><text x="498px" y="1288px" font-family="Arial" font-size="10pt" fill="#000000">пути</text><rect x="744px" y="1198px" width="348px" height="200px" fill="url(#fs1)" /><path d="M 744 1314.667 C 743.9999 1287.052  899.8047 1264.667  1092 1264.667 L 744 1314.667  744 1198  1092 1198  1092 1264.667 z " fill="url(#fs2)" /><rect x="744px" y="1198px" width="348px" height="200px" fill="none" stroke="#000000" stroke-width="1px" stroke-dashoffset="0" stroke-linejoin="miter" stroke-miterlimit="10" /><text x="867px" y="1215px" font-family="Arial" font-size="10pt" font-weight="bold" fill="#000000">BackGroundCell</text><line x1="744px" y1="1218px" x2="1092px" y2="1218px" stroke="#000000" stroke-width="1px" stroke-dashoffset="0" stroke-linejoin="miter" stroke-miterlimit="10" /><text x="746px" y="1239px" font-family="Arial" font-size="10pt" fill="#000000">Superclass:</text><text x="746px" y="1264px" font-family="Arial" font-size="10pt" fill="#000000">Subclasses:</text><line x1="744px" y1="1271px" x2="1092px" y2="1271px" stroke="#000000" stroke-width="1px" stroke-dashoffset="0" stroke-linejoin="miter" stroke-miterlimit="10" /><line x1="918px" y1="1271px" x2="918px" y2="1398px" stroke="#000000" stroke-width="1px" stroke-dashoffset="0" stroke-linejoin="miter" stroke-miterlimit="10" /><text x="746px" y="1288px" font-family="Arial" font-size="10pt" fill="#000000">Отобразить</text><text x="819px" y="1288px" font-family="Arial" font-size="10pt" fill="#000000">клетку</text><text x="861px" y="1288px" font-family="Arial" font-size="10pt" fill="#000000">фона</text><rect x="1354px" y="1049px" width="311px" height="200px" fill="url(#fs1)" /><path d="M 1354 1165.667 C 1354 1138.052  1493.239 1115.667  1665 1115.667 L 1354 1165.667  1354 1049  1665 1049  1665 1115.667 z " fill="url(#fs2)" /><rect x="1354px" y="1049px" width="311px" height="200px" fill="none" stroke="#000000" stroke-width="1px" stroke-dashoffset="0" stroke-linejoin="miter" stroke-miterlimit="10" /><text x="1472px" y="1066px" font-family="Arial" font-size="10pt" font-weight="bold" fill="#000000">DrawHelper</text><line x1="1354px" y1="1069px" x2="1665px" y2="1069px" stroke="#000000" stroke-width="1px" stroke-dashoffset="0" stroke-linejoin="miter" stroke-miterlimit="10" /><text x="1356px" y="1090px" font-family="Arial" font-size="10pt" fill="#000000">Superclass:</text><text x="1356px" y="1115px" font-family="Arial" font-size="10pt" fill="#000000">Subclasses:</text><line x1="1354px" y1="1122px" x2="1665px" y2="1122px" stroke="#000000" stroke-width="1px" stroke-dashoffset="0" stroke-linejoin="miter" stroke-miterlimit="10" /><line x1="1509px" y1="1122px" x2="1509px" y2="1249px" stroke="#000000" stroke-width="1px" stroke-dashoffset="0" stroke-linejoin="miter" stroke-miterlimit="10" /><text x="1356px" y="1139px" font-family="Arial" font-size="10pt" fill="#000000">Отрисовать</text><text x="1429px" y="1139px" font-family="Arial" font-size="10pt" fill="#000000">спрайт</text><text x="1356px" y="1156px" font-family="Arial" font-size="10pt" fill="#000000">Отрисовать</text><text x="1429px" y="1156px" font-family="Arial" font-size="10pt" fill="#000000">текст</text><text x="1356px" y="1172px" font-family="Arial" font-size="10pt" fill="#000000">Отрисовать</text><text x="1429px" y="1172px" font-family="Arial" font-size="10pt" fill="#000000">примитив</text><rect x="1075px" y="251px" width="484px" height="200px" fill="url(#fs1)" /><path d="M 1075 367.6667 C 1075 340.0524  1291.694 317.6667  1559 317.6667 L 1075 367.6667  1075 251  1559 251  1559 317.6667 z " fill="url(#fs2)" /><rect x="1075px" y="251px" width="484px" height="200px" fill="none" stroke="#000000" stroke-width="1px" stroke-dashoffset="0" stroke-linejoin="miter" stroke-miterlimit="10" /><text x="1276px" y="268px" font-family="Arial" font-size="10pt" font-weight="bold" font-style="italic" fill="#000000">GameControl</text><line x1="1075px" y1="271px" x2="1559px" y2="271px" stroke="#000000" stroke-width="1px" stroke-dashoffset="0" stroke-linejoin="miter" stroke-miterlimit="10" /><text x="1077px" y="292px" font-family="Arial" font-size="10pt" fill="#000000">Superclass:</text><text x="1177px" y="292px" font-family="Arial" font-size="10pt" fill="#000000">Renderable</text><text x="1077px" y="317px" font-family="Arial" font-size="10pt" fill="#000000">Subclasses:</text><text x="1177px" y="317px" font-family="Arial" font-size="10pt" fill="#000000">PlayButtonControl,</text><text x="1306px" y="317px" font-family="Arial" font-size="10pt" fill="#000000">TowerChoiceMenuControl,</text><text x="1127px" y="333px" font-family="Arial" font-size="10pt" fill="#000000">TimeBarControl,</text><text x="1239px" y="333px" font-family="Arial" font-size="10pt" fill="#000000">StatisticsBarControl,</text><text x="1127px" y="350px" font-family="Arial" font-size="10pt" fill="#000000">GameFinalStatisticsControl,</text><line x1="1075px" y1="357px" x2="1559px" y2="357px" stroke="#000000" stroke-width="1px" stroke-dashoffset="0" stroke-linejoin="miter" stroke-miterlimit="10" /><line x1="1317px" y1="357px" x2="1317px" y2="451px" stroke="#000000" stroke-width="1px" stroke-dashoffset="0" stroke-linejoin="miter" stroke-miterlimit="10" /><text x="1077px" y="374px" font-family="Arial" font-size="10pt" fill="#000000">Хранить</text><text x="1128px" y="374px" font-family="Arial" font-size="10pt" fill="#000000">состояние</text><text x="1193px" y="374px" font-family="Arial" font-size="10pt" fill="#000000">вкл./выкл.</text><text x="1077px" y="391px" font-family="Arial" font-size="10pt" fill="#000000">Хранить</text><text x="1131px" y="391px" font-family="Arial" font-size="10pt" fill="#000000">признак</text><text x="1184px" y="391px" font-family="Arial" font-size="10pt" fill="#000000">нажимабельности</text><text x="1077px" y="407px" font-family="Arial" font-size="10pt" fill="#000000">Сообщать</text><text x="1142px" y="407px" font-family="Arial" font-size="10pt" fill="#000000">свою</text><text x="1177px" y="407px" font-family="Arial" font-size="10pt" fill="#000000">область</text><rect x="1091px" y="21px" width="447px" height="200px" fill="url(#fs1)" /><path d="M 1091 137.6667 C 1091 110.0524  1291.129 87.66666  1538 87.66666 L 1091 137.6667  1091 21  1538 21  1538 87.66666 z " fill="url(#fs2)" /><rect x="1091px" y="21px" width="447px" height="200px" fill="none" stroke="#000000" stroke-width="1px" stroke-dashoffset="0" stroke-linejoin="miter" stroke-miterlimit="10" /><text x="1280px" y="38px" font-family="Arial" font-size="10pt" font-weight="bold" font-style="italic" fill="#000000">Renderable</text><line x1="1091px" y1="41px" x2="1538px" y2="41px" stroke="#000000" stroke-width="1px" stroke-dashoffset="0" stroke-linejoin="miter" stroke-miterlimit="10" /><text x="1093px" y="62px" font-family="Arial" font-size="10pt" fill="#000000">Superclass:</text><text x="1093px" y="87px" font-family="Arial" font-size="10pt" fill="#000000">Subclasses:</text><text x="1193px" y="87px" font-family="Arial" font-size="10pt" fill="#000000">FieldUnit,</text><text x="1260px" y="87px" font-family="Arial" font-size="10pt" fill="#000000">GameControl,</text><line x1="1091px" y1="94px" x2="1538px" y2="94px" stroke="#000000" stroke-width="1px" stroke-dashoffset="0" stroke-linejoin="miter" stroke-miterlimit="10" /><line x1="1314px" y1="94px" x2="1314px" y2="221px" stroke="#000000" stroke-width="1px" stroke-dashoffset="0" stroke-linejoin="miter" stroke-miterlimit="10" /><text x="1093px" y="111px" font-family="Arial" font-size="10pt" fill="#000000">Отображаться</text><text x="1093px" y="128px" font-family="Arial" font-size="10pt" fill="#000000">Хранить</text><text x="1145px" y="128px" font-family="Arial" font-size="10pt" fill="#000000">хелпер</text><text x="1191px" y="128px" font-family="Arial" font-size="10pt" fill="#000000">отрисовки</text><text x="1316px" y="111px" font-family="Arial" font-size="10pt" fill="#000000">DrawHelper</text><rect x="868px" y="735px" width="337px" height="186px" fill="url(#fs1)" /><path d="M 868 843.5 C 867.9999 817.8187  1018.88 797  1205 796.9999 L 868 843.5  868 735  1205 735  1205 797 z " fill="url(#fs2)" /><rect x="868px" y="735px" width="337px" height="186px" fill="none" stroke="#000000" stroke-width="1px" stroke-dashoffset="0" stroke-linejoin="miter" stroke-miterlimit="10" /><text x="1008px" y="752px" font-family="Arial" font-size="10pt" font-weight="bold" fill="#000000">FieldUnit</text><line x1="868px" y1="755px" x2="1205px" y2="755px" stroke="#000000" stroke-width="1px" stroke-dashoffset="0" stroke-linejoin="miter" stroke-miterlimit="10" /><text x="870px" y="776px" font-family="Arial" font-size="10pt" fill="#000000">Superclass:</text><text x="970px" y="776px" font-family="Arial" font-size="10pt" fill="#000000">Renderable</text><text x="870px" y="801px" font-family="Arial" font-size="10pt" fill="#000000">Subclasses:</text><text x="970px" y="801px" font-family="Arial" font-size="10pt" fill="#000000">Tower,</text><text x="1018px" y="801px" font-family="Arial" font-size="10pt" fill="#000000">TowerSlot,</text><text x="1093px" y="801px" font-family="Arial" font-size="10pt" fill="#000000">Shot,</text><text x="1132px" y="801px" font-family="Arial" font-size="10pt" fill="#000000">Enemy,</text><text x="920px" y="817px" font-family="Arial" font-size="10pt" fill="#000000">PathCell,</text><text x="983px" y="817px" font-family="Arial" font-size="10pt" fill="#000000">BackGroundCell,</text><line x1="868px" y1="825px" x2="1205px" y2="825px" stroke="#000000" stroke-width="1px" stroke-dashoffset="0" stroke-linejoin="miter" stroke-miterlimit="10" /><line x1="1036px" y1="825px" x2="1036px" y2="921px" stroke="#000000" stroke-width="1px" stroke-dashoffset="0" stroke-linejoin="miter" stroke-miterlimit="10" /><text x="870px" y="842px" font-family="Arial" font-size="10pt" fill="#000000">Содержать</text><text x="940px" y="842px" font-family="Arial" font-size="10pt" fill="#000000">координаты</text><rect x="1338px" y="792px" width="348px" height="200px" fill="url(#fs1)" /><path d="M 1338 908.6667 C 1338 881.0524  1493.805 858.6667  1686 858.6667 L 1338 908.6667  1338 792  1686 792  1686 858.6667 z " fill="url(#fs2)" /><rect x="1338px" y="792px" width="348px" height="200px" fill="none" stroke="#000000" stroke-width="1px" stroke-dashoffset="0" stroke-linejoin="miter" stroke-miterlimit="10" /><text x="1475px" y="809px" font-family="Arial" font-size="10pt" font-weight="bold" fill="#000000">MapCreator</text><line x1="1338px" y1="812px" x2="1686px" y2="812px" stroke="#000000" stroke-width="1px" stroke-dashoffset="0" stroke-linejoin="miter" stroke-miterlimit="10" /><text x="1340px" y="833px" font-family="Arial" font-size="10pt" fill="#000000">Superclass:</text><text x="1340px" y="858px" font-family="Arial" font-size="10pt" fill="#000000">Subclasses:</text><line x1="1338px" y1="865px" x2="1686px" y2="865px" stroke="#000000" stroke-width="1px" stroke-dashoffset="0" stroke-linejoin="miter" stroke-miterlimit="10" /><line x1="1512px" y1="865px" x2="1512px" y2="992px" stroke="#000000" stroke-width="1px" stroke-dashoffset="0" stroke-linejoin="miter" stroke-miterlimit="10" /><text x="1340px" y="882px" font-family="Arial" font-size="10pt" fill="#000000">Строить</text><text x="1391px" y="882px" font-family="Arial" font-size="10pt" fill="#000000">начальный</text><text x="1460px" y="882px" font-family="Arial" font-size="10pt" fill="#000000">мир</text><text x="1340px" y="899px" font-family="Arial" font-size="10pt" fill="#000000">Предоставлять</text><text x="1434px" y="899px" font-family="Arial" font-size="10pt" fill="#000000">пути</text><text x="1514px" y="882px" font-family="Arial" font-size="10pt" fill="#000000">BattleField</text><text x="1514px" y="899px" font-family="Arial" font-size="10pt" fill="#000000">TowerSlot</text><text x="1514px" y="915px" font-family="Arial" font-size="10pt" fill="#000000">PathCell</text><text x="1514px" y="932px" font-family="Arial" font-size="10pt" fill="#000000">BackGroundCell</text><text x="1514px" y="948px" font-family="Arial" font-size="10pt" fill="#000000">WayPointsPath</text><text x="1514px" y="965px" font-family="Arial" font-size="10pt" fill="#000000">WayPointsPathList</text><rect x="1362px" y="518px" width="300px" height="200px" fill="url(#fs1)" /><path d="M 1362 634.6667 C 1362 607.0524  1496.314 584.6667  1662 584.6667 L 1362 634.6667  1362 518  1662 518  1662 584.6667 z " fill="url(#fs2)" /><rect x="1362px" y="518px" width="300px" height="200px" fill="none" stroke="#000000" stroke-width="1px" stroke-dashoffset="0" stroke-linejoin="miter" stroke-miterlimit="10" /><text x="1464px" y="535px" font-family="Arial" font-size="10pt" font-weight="bold" fill="#000000">WayPointsPath</text><line x1="1362px" y1="538px" x2="1662px" y2="538px" stroke="#000000" stroke-width="1px" stroke-dashoffset="0" stroke-linejoin="miter" stroke-miterlimit="10" /><text x="1364px" y="559px" font-family="Arial" font-size="10pt" fill="#000000">Superclass:</text><text x="1364px" y="584px" font-family="Arial" font-size="10pt" fill="#000000">Subclasses:</text><line x1="1362px" y1="591px" x2="1662px" y2="591px" stroke="#000000" stroke-width="1px" stroke-dashoffset="0" stroke-linejoin="miter" stroke-miterlimit="10" /><line x1="1512px" y1="591px" x2="1512px" y2="718px" stroke="#000000" stroke-width="1px" stroke-dashoffset="0" stroke-linejoin="miter" stroke-miterlimit="10" /><text x="1364px" y="608px" font-family="Arial" font-size="10pt" fill="#000000">Хранить</text><text x="1415px" y="608px" font-family="Arial" font-size="10pt" fill="#000000">путь</text><rect x="1746px" y="794px" width="300px" height="200px" fill="url(#fs1)" /><path d="M 1746 910.6667 C 1746 883.0524  1880.314 860.6667  2046 860.6667 L 1746 910.6667  1746 794  2046 794  2046 860.6667 z " fill="url(#fs2)" /><rect x="1746px" y="794px" width="300px" height="200px" fill="none" stroke="#000000" stroke-width="1px" stroke-dashoffset="0" stroke-linejoin="miter" stroke-miterlimit="10" /><text x="1860px" y="811px" font-family="Arial" font-size="10pt" font-weight="bold" fill="#000000">UnitCreator</text><line x1="1746px" y1="814px" x2="2046px" y2="814px" stroke="#000000" stroke-width="1px" stroke-dashoffset="0" stroke-linejoin="miter" stroke-miterlimit="10" /><text x="1748px" y="835px" font-family="Arial" font-size="10pt" fill="#000000">Superclass:</text><text x="1748px" y="860px" font-family="Arial" font-size="10pt" fill="#000000">Subclasses:</text><line x1="1746px" y1="867px" x2="2046px" y2="867px" stroke="#000000" stroke-width="1px" stroke-dashoffset="0" stroke-linejoin="miter" stroke-miterlimit="10" /><line x1="1896px" y1="867px" x2="1896px" y2="994px" stroke="#000000" stroke-width="1px" stroke-dashoffset="0" stroke-linejoin="miter" stroke-miterlimit="10" /><text x="1748px" y="884px" font-family="Arial" font-size="10pt" fill="#000000">Создавать</text><text x="1815px" y="884px" font-family="Arial" font-size="10pt" fill="#000000">башню</text><text x="1748px" y="901px" font-family="Arial" font-size="10pt" fill="#000000">Создавать</text><text x="1815px" y="901px" font-family="Arial" font-size="10pt" fill="#000000">выстрел</text><text x="1748px" y="917px" font-family="Arial" font-size="10pt" fill="#000000">Создавать</text><text x="1815px" y="917px" font-family="Arial" font-size="10pt" fill="#000000">врага</text><text x="1898px" y="884px" font-family="Arial" font-size="10pt" fill="#000000">Enemy</text><text x="1898px" y="901px" font-family="Arial" font-size="10pt" fill="#000000">Shot</text><text x="1898px" y="917px" font-family="Arial" font-size="10pt" fill="#000000">Tower</text><rect x="1346px" y="1294px" width="340px" height="212px" fill="url(#fs1)" /><path d="M 1346 1417.667 C 1346 1388.396  1498.223 1364.667  1686 1364.667 L 1346 1417.667  1346 1294  1686 1294  1686 1364.667 z " fill="url(#fs2)" /><rect x="1346px" y="1294px" width="340px" height="212px" fill="none" stroke="#000000" stroke-width="1px" stroke-dashoffset="0" stroke-linejoin="miter" stroke-miterlimit="10" /><text x="1456px" y="1311px" font-family="Arial" font-size="10pt" font-weight="bold" fill="#000000">EnemyRandomizer</text><line x1="1346px" y1="1314px" x2="1686px" y2="1314px" stroke="#000000" stroke-width="1px" stroke-dashoffset="0" stroke-linejoin="miter" stroke-miterlimit="10" /><text x="1348px" y="1335px" font-family="Arial" font-size="10pt" fill="#000000">Superclass:</text><text x="1348px" y="1360px" font-family="Arial" font-size="10pt" fill="#000000">Subclasses:</text><line x1="1346px" y1="1367px" x2="1686px" y2="1367px" stroke="#000000" stroke-width="1px" stroke-dashoffset="0" stroke-linejoin="miter" stroke-miterlimit="10" /><line x1="1516px" y1="1367px" x2="1516px" y2="1506px" stroke="#000000" stroke-width="1px" stroke-dashoffset="0" stroke-linejoin="miter" stroke-miterlimit="10" /><text x="1348px" y="1384px" font-family="Arial" font-size="10pt" fill="#000000">Логика</text><text x="1393px" y="1384px" font-family="Arial" font-size="10pt" fill="#000000">создания</text><text x="1453px" y="1384px" font-family="Arial" font-size="10pt" fill="#000000">врагов</text><text x="1518px" y="1384px" font-family="Arial" font-size="10pt" fill="#000000">WayPointsPathList</text><rect x="1750px" y="518px" width="300px" height="200px" fill="url(#fs1)" /><path d="M 1750 634.6667 C 1750 607.0524  1884.314 584.6667  2050 584.6667 L 1750 634.6667  1750 518  2050 518  2050 584.6667 z " fill="url(#fs2)" /><rect x="1750px" y="518px" width="300px" height="200px" fill="none" stroke="#000000" stroke-width="1px" stroke-dashoffset="0" stroke-linejoin="miter" stroke-miterlimit="10" /><text x="1841px" y="535px" font-family="Arial" font-size="10pt" font-weight="bold" fill="#000000">WayPointsPathList</text><line x1="1750px" y1="538px" x2="2050px" y2="538px" stroke="#000000" stroke-width="1px" stroke-dashoffset="0" stroke-linejoin="miter" stroke-miterlimit="10" /><text x="1752px" y="559px" font-family="Arial" font-size="10pt" fill="#000000">Superclass:</text><text x="1752px" y="584px" font-family="Arial" font-size="10pt" fill="#000000">Subclasses:</text><line x1="1750px" y1="591px" x2="2050px" y2="591px" stroke="#000000" stroke-width="1px" stroke-dashoffset="0" stroke-linejoin="miter" stroke-miterlimit="10" /><line x1="1900px" y1="591px" x2="1900px" y2="718px" stroke="#000000" stroke-width="1px" stroke-dashoffset="0" stroke-linejoin="miter" stroke-miterlimit="10" /><text x="1752px" y="608px" font-family="Arial" font-size="10pt" fill="#000000">Хранить</text><text x="1803px" y="608px" font-family="Arial" font-size="10pt" fill="#000000">набор</text><text x="1842px" y="608px" font-family="Arial" font-size="10pt" fill="#000000">путей</text><text x="1902px" y="608px" font-family="Arial" font-size="10pt" fill="#000000">WayPointsPath</text></svg>