<?xml version="1.0" encoding="utf-8" standalone="no"?><!DOCTYPE svg PUBLIC "-//W3C//DTD SVG 1.1//EN" "http://www.w3.org/Graphics/SVG/1.1/DTD/svg11.dtd"><svg width="661px" height="590px" version="1.1" xmlns="http://www.w3.org/2000/svg"><desc /><defs><linearGradient id="fs1" x1="0px" y1="0px" x2="1px" y2="0px"><stop offset="0%" stop-color="#D3D3D3" /><stop offset="100%" stop-color="#FFFFFF" /></linearGradient><linearGradient id="fs2" x1="0px" y1="0px" x2="1px" y2="0px"><stop offset="0%" stop-color="rgba(255,255,255,0.549)" /><stop offset="100%" stop-color="rgba(255,255,255,0.157)" /></linearGradient><clipPath id="cp1"><path d="M 150 274 L 290 274  300 264  300 254  150 254 " /></clipPath></defs><rect x="20px" y="50px" width="80px" height="60px" fill="url(#fs1)" /><path d="M 20 85 C 19.99999 76.71573  55.81719 70  99.99997 70 L 20 85  20 50  100 50  100 70 z " fill="url(#fs2)" /><rect x="20px" y="50px" width="80px" height="60px" fill="none" stroke="#000000" stroke-width="1px" stroke-dashoffset="0" stroke-linejoin="miter" stroke-miterlimit="10" /><text x="28px" y="80px" font-family="Arial" font-size="10pt" text-decoration="underline" fill="#000000">main_thread</text><line x1="60px" y1="110px" x2="60px" y2="590px" stroke="#000000" stroke-width="1px" stroke-dasharray="10,10" stroke-dashoffset="0" stroke-linejoin="miter" stroke-miterlimit="10" /><rect x="50px" y="142px" width="20px" height="438px" fill="url(#fs1)" /><path d="M 50 397.5 C 50 337.0248  58.9543 288  69.99999 288 L 50 397.5  50 142  70 142  70 288 z " fill="url(#fs2)" /><rect x="50px" y="142px" width="20px" height="438px" fill="none" stroke="#000000" stroke-width="1px" stroke-dashoffset="0" stroke-linejoin="miter" stroke-miterlimit="10" /><rect x="121px" y="50px" width="80px" height="60px" fill="url(#fs1)" /><path d="M 121 85 C 121 76.71573  156.8172 70  201 70 L 121 85  121 50  201 50  201 70 z " fill="url(#fs2)" /><rect x="121px" y="50px" width="80px" height="60px" fill="none" stroke="#000000" stroke-width="1px" stroke-dashoffset="0" stroke-linejoin="miter" stroke-miterlimit="10" /><text x="128px" y="80px" font-family="Arial" font-size="10pt" text-decoration="underline" fill="#000000">gameProcessor</text><line x1="161px" y1="110px" x2="161px" y2="581px" stroke="#000000" stroke-width="1px" stroke-dasharray="10,10" stroke-dashoffset="0" stroke-linejoin="miter" stroke-miterlimit="10" /><rect x="151px" y="177px" width="20px" height="382px" fill="url(#fs1)" /><path d="M 151 399.8333 C 151 347.0902  159.9543 304.3333  171 304.3333 L 151 399.8333  151 177  171 177  171 304.3333 z " fill="url(#fs2)" /><rect x="151px" y="177px" width="20px" height="382px" fill="none" stroke="#000000" stroke-width="1px" stroke-dashoffset="0" stroke-linejoin="miter" stroke-miterlimit="10" /><line x1="70px" y1="256px" x2="151px" y2="256px" stroke="#000000" stroke-width="1px" stroke-dashoffset="0" stroke-linejoin="miter" stroke-miterlimit="10" /><polygon points="151,256 132,247 132,264 " fill="#000000" /><text x="87px" y="255px" font-family="Arial" font-size="10pt" fill="#000000">initialize</text><line x1="70px" y1="277px" x2="151px" y2="277px" stroke="#000000" stroke-width="1px" stroke-dashoffset="0" stroke-linejoin="miter" stroke-miterlimit="10" /><polygon points="151,277 132,268 132,285 " fill="#000000" /><text x="102px" y="276px" font-family="Arial" font-size="10pt" fill="#000000">run</text><rect x="272px" y="50px" width="80px" height="60px" fill="url(#fs1)" /><path d="M 272 85 C 272 76.71573  307.8172 70  352 70 L 272 85  272 50  352 50  352 70 z " fill="url(#fs2)" /><rect x="272px" y="50px" width="80px" height="60px" fill="none" stroke="#000000" stroke-width="1px" stroke-dashoffset="0" stroke-linejoin="miter" stroke-miterlimit="10" /><text x="280px" y="80px" font-family="Arial" font-size="10pt" text-decoration="underline" fill="#000000">preparingFieldMode</text><line x1="312px" y1="110px" x2="312px" y2="585px" stroke="#000000" stroke-width="1px" stroke-dasharray="10,10" stroke-dashoffset="0" stroke-linejoin="miter" stroke-miterlimit="10" /><rect x="302px" y="140px" width="20px" height="395px" fill="url(#fs1)" /><path d="M 302 370.4167 C 302 315.8786  310.9543 271.6667  322 271.6667 L 302 370.4167  302 140  322 140  322 271.6667 z " fill="url(#fs2)" /><rect x="302px" y="140px" width="20px" height="395px" fill="none" stroke="#000000" stroke-width="1px" stroke-dashoffset="0" stroke-linejoin="miter" stroke-miterlimit="10" /><line x1="171px" y1="291px" x2="302px" y2="291px" stroke="#000000" stroke-width="1px" stroke-dashoffset="0" stroke-linejoin="miter" stroke-miterlimit="10" /><polygon points="302,291 283,282 283,299 " fill="#000000" /><text x="203px" y="290px" font-family="Arial" font-size="10pt" fill="#000000">processTap</text><line x1="171px" y1="394px" x2="302px" y2="394px" stroke="#000000" stroke-width="1px" stroke-dashoffset="0" stroke-linejoin="miter" stroke-miterlimit="10" /><polygon points="302,394 283,385 283,402 " fill="#000000" /><text x="200px" y="393px" font-family="Arial" font-size="10pt" fill="#000000">processStep</text><line x1="171px" y1="481px" x2="302px" y2="481px" stroke="#000000" stroke-width="1px" stroke-dashoffset="0" stroke-linejoin="miter" stroke-miterlimit="10" /><polygon points="302,481 283,472 283,489 " fill="#000000" /><text x="219px" y="480px" font-family="Arial" font-size="10pt" fill="#000000">render</text><line x1="302px" y1="432px" x2="171px" y2="432px" stroke="#000000" stroke-width="1px" stroke-dasharray="5,4" stroke-dashoffset="0" stroke-linejoin="miter" stroke-miterlimit="10" /><line x1="171px" y1="432px" x2="189px" y2="440px" stroke="#000000" stroke-width="1px" stroke-dashoffset="0" stroke-linejoin="miter" stroke-miterlimit="10" /><line x1="171px" y1="432px" x2="189px" y2="423px" stroke="#000000" stroke-width="1px" stroke-dashoffset="0" stroke-linejoin="miter" stroke-miterlimit="10" /><text x="199px" y="431px" font-family="Arial" font-size="10pt" fill="#000000">current</text><text x="243px" y="431px" font-family="Arial" font-size="10pt" fill="#000000">mode</text><line x1="302px" y1="355px" x2="171px" y2="355px" stroke="#000000" stroke-width="1px" stroke-dasharray="5,4" stroke-dashoffset="0" stroke-linejoin="miter" stroke-miterlimit="10" /><line x1="171px" y1="355px" x2="189px" y2="363px" stroke="#000000" stroke-width="1px" stroke-dashoffset="0" stroke-linejoin="miter" stroke-miterlimit="10" /><line x1="171px" y1="355px" x2="189px" y2="346px" stroke="#000000" stroke-width="1px" stroke-dashoffset="0" stroke-linejoin="miter" stroke-miterlimit="10" /><text x="178px" y="354px" font-family="Arial" font-size="10pt" fill="#000000">new</text><text x="205px" y="354px" font-family="Arial" font-size="10pt" fill="#000000">or</text><text x="220px" y="354px" font-family="Arial" font-size="10pt" fill="#000000">current</text><text x="264px" y="354px" font-family="Arial" font-size="10pt" fill="#000000">mode</text><line x1="70px" y1="155px" x2="302px" y2="155px" stroke="#000000" stroke-width="1px" stroke-dashoffset="0" stroke-linejoin="miter" stroke-miterlimit="10" /><polygon points="302,155 283,146 283,163 " fill="#000000" /><text x="163px" y="154px" font-family="Arial" font-size="10pt" fill="#000000">initialize</text><line x1="151px" y1="545px" x2="70px" y2="545px" stroke="#000000" stroke-width="1px" stroke-dasharray="5,4" stroke-dashoffset="0" stroke-linejoin="miter" stroke-miterlimit="10" /><line x1="70px" y1="545px" x2="88px" y2="553px" stroke="#000000" stroke-width="1px" stroke-dashoffset="0" stroke-linejoin="miter" stroke-miterlimit="10" /><line x1="70px" y1="545px" x2="88px" y2="536px" stroke="#000000" stroke-width="1px" stroke-dashoffset="0" stroke-linejoin="miter" stroke-miterlimit="10" /><text x="83px" y="544px" font-family="Arial" font-size="10pt" fill="#000000">doRepeat</text><rect x="393px" y="50px" width="80px" height="60px" fill="url(#fs1)" /><path d="M 393 85 C 393 76.71573  428.8172 70  473 70 L 393 85  393 50  473 50  473 70 z " fill="url(#fs2)" /><rect x="393px" y="50px" width="80px" height="60px" fill="none" stroke="#000000" stroke-width="1px" stroke-dashoffset="0" stroke-linejoin="miter" stroke-miterlimit="10" /><text x="400px" y="88px" font-family="Arial" font-size="10pt" text-decoration="underline" fill="#000000">mapCreator</text><line x1="433px" y1="110px" x2="433px" y2="574px" stroke="#000000" stroke-width="1px" stroke-dasharray="10,10" stroke-dashoffset="0" stroke-linejoin="miter" stroke-miterlimit="10" /><rect x="423px" y="146px" width="20px" height="97px" fill="url(#fs1)" /><path d="M 423 202.5833 C 423 189.1904  431.9543 178.3333  443 178.3333 L 423 202.5833  423 146  443 146  443 178.3333 z " fill="url(#fs2)" /><rect x="423px" y="146px" width="20px" height="97px" fill="none" stroke="#000000" stroke-width="1px" stroke-dashoffset="0" stroke-linejoin="miter" stroke-miterlimit="10" /><rect x="581px" y="50px" width="80px" height="60px" fill="url(#fs1)" /><path d="M 581 85 C 580.9999 76.71573  616.8171 70  660.9999 70 L 581 85  581 50  661 50  661 70 z " fill="url(#fs2)" /><rect x="581px" y="50px" width="80px" height="60px" fill="none" stroke="#000000" stroke-width="1px" stroke-dashoffset="0" stroke-linejoin="miter" stroke-miterlimit="10" /><text x="591px" y="88px" font-family="Arial" font-size="10pt" text-decoration="underline" fill="#000000">battleField</text><line x1="621px" y1="110px" x2="621px" y2="569px" stroke="#000000" stroke-width="1px" stroke-dasharray="10,10" stroke-dashoffset="0" stroke-linejoin="miter" stroke-miterlimit="10" /><rect x="611px" y="179px" width="20px" height="409px" fill="url(#fs1)" /><path d="M 611 417.5833 C 610.9999 361.1122  619.9543 315.3333  630.9999 315.3333 L 611 417.5833  611 179  631 179  631 315.3333 z " fill="url(#fs2)" /><rect x="611px" y="179px" width="20px" height="409px" fill="none" stroke="#000000" stroke-width="1px" stroke-dashoffset="0" stroke-linejoin="miter" stroke-miterlimit="10" /><line x1="322px" y1="169px" x2="423px" y2="169px" stroke="#000000" stroke-width="1px" stroke-dashoffset="0" stroke-linejoin="miter" stroke-miterlimit="10" /><polygon points="423,169 404,160 404,177 " fill="#000000" /><text x="341px" y="168px" font-family="Arial" font-size="10pt" fill="#000000">createField</text><line x1="443px" y1="199px" x2="611px" y2="199px" stroke="#000000" stroke-width="1px" stroke-dashoffset="0" stroke-linejoin="miter" stroke-miterlimit="10" /><polygon points="611,199 592,190 592,207 " fill="#000000" /><text x="488px" y="198px" font-family="Arial" font-size="10pt" fill="#000000">addTowerSlot</text><line x1="443px" y1="180px" x2="611px" y2="180px" stroke="#000000" stroke-width="1px" stroke-dashoffset="0" stroke-linejoin="miter" stroke-miterlimit="10" /><polygon points="611,180 592,171 592,188 " fill="#000000" /><text x="498px" y="179px" font-family="Arial" font-size="10pt" fill="#000000">addBgCell</text><line x1="443px" y1="216px" x2="611px" y2="216px" stroke="#000000" stroke-width="1px" stroke-dashoffset="0" stroke-linejoin="miter" stroke-miterlimit="10" /><polygon points="611,216 592,207 592,224 " fill="#000000" /><text x="492px" y="215px" font-family="Arial" font-size="10pt" fill="#000000">addPathCell</text><line x1="423px" y1="236px" x2="322px" y2="236px" stroke="#000000" stroke-width="1px" stroke-dasharray="5,4" stroke-dashoffset="0" stroke-linejoin="miter" stroke-miterlimit="10" /><line x1="322px" y1="236px" x2="340px" y2="244px" stroke="#000000" stroke-width="1px" stroke-dashoffset="0" stroke-linejoin="miter" stroke-miterlimit="10" /><line x1="322px" y1="236px" x2="340px" y2="227px" stroke="#000000" stroke-width="1px" stroke-dashoffset="0" stroke-linejoin="miter" stroke-miterlimit="10" /><text x="343px" y="235px" font-family="Arial" font-size="10pt" fill="#000000">battleField</text><line x1="443px" y1="232px" x2="611px" y2="232px" stroke="#000000" stroke-width="1px" stroke-dashoffset="0" stroke-linejoin="miter" stroke-miterlimit="10" /><polygon points="611,232 592,223 592,240 " fill="#000000" /><text x="486px" y="231px" font-family="Arial" font-size="10pt" fill="#000000">setWayPoints</text><line x1="322px" y1="498px" x2="611px" y2="498px" stroke="#000000" stroke-width="1px" stroke-dashoffset="0" stroke-linejoin="miter" stroke-miterlimit="10" /><polygon points="611,498 592,489 592,506 " fill="#000000" /><text x="449px" y="497px" font-family="Arial" font-size="10pt" fill="#000000">render</text><path d="M 150 274 L 290 274  300 264  300 254  150 254 " fill="url(#fs1)" /><g clip-path="url(#cp1)"><path d="M 150 265.6667 C 150 262.9052  217.1572 260.6667  299.9999 260.6667 L 150 265.6667  150 254  300 254  300 260.6667 z " fill="url(#fs2)" /></g><path fill="none" d="M 150 274 L 290 274  300 264  300 254  150 254 " stroke="#000000" stroke-width="1px" stroke-dashoffset="0" stroke-linejoin="miter" stroke-miterlimit="10" /><text x="152px" y="273px" font-family="Arial" font-size="10pt" font-weight="bold" fill="#000000">loop</text><text x="185px" y="273px" font-family="Arial" font-size="10pt" fill="#000000">main</text><text x="217px" y="273px" font-family="Arial" font-size="10pt" fill="#000000">loop</text><rect x="150px" y="254px" width="484px" height="270px" fill="none" stroke="#000000" stroke-width="1px" stroke-dashoffset="0" stroke-linejoin="miter" stroke-miterlimit="10" /></svg>