<?xml version="1.0" encoding="utf-8" standalone="no"?><!DOCTYPE svg PUBLIC "-//W3C//DTD SVG 1.1//EN" "http://www.w3.org/Graphics/SVG/1.1/DTD/svg11.dtd"><svg width="873px" height="585px" version="1.1" xmlns="http://www.w3.org/2000/svg"><desc /><defs><linearGradient id="fs1" x1="0px" y1="0px" x2="1px" y2="0px"><stop offset="0%" stop-color="#D3D3D3" /><stop offset="100%" stop-color="#FFFFFF" /></linearGradient><linearGradient id="fs2" x1="0px" y1="0px" x2="1px" y2="0px"><stop offset="0%" stop-color="rgba(255,255,255,0.549)" /><stop offset="100%" stop-color="rgba(255,255,255,0.157)" /></linearGradient></defs><rect x="8px" y="50px" width="80px" height="60px" fill="url(#fs1)" /><path d="M 8.000004 85 C 7.999991 76.71573  43.81719 70  87.99997 70 L 8 85  8 50  88 50  88 70 z " fill="url(#fs2)" /><rect x="8px" y="50px" width="80px" height="60px" fill="none" stroke="#000000" stroke-width="1px" stroke-dashoffset="0" stroke-linejoin="miter" stroke-miterlimit="10" /><text x="15px" y="80px" font-family="Arial" font-size="10pt" text-decoration="underline" fill="#000000">gameProcessor</text><line x1="48px" y1="110px" x2="48px" y2="581px" stroke="#000000" stroke-width="1px" stroke-dasharray="10,10" stroke-dashoffset="0" stroke-linejoin="miter" stroke-miterlimit="10" /><rect x="38px" y="130px" width="20px" height="410px" fill="url(#fs1)" /><path d="M 38 369.1667 C 38 312.5575  46.9543 266.6667  57.99999 266.6667 L 38 369.1667  38 130  58 130  58 266.6667 z " fill="url(#fs2)" /><rect x="38px" y="130px" width="20px" height="410px" fill="none" stroke="#000000" stroke-width="1px" stroke-dashoffset="0" stroke-linejoin="miter" stroke-miterlimit="10" /><rect x="160px" y="50px" width="80px" height="60px" fill="url(#fs1)" /><path d="M 160 85 C 160 76.71573  195.8172 70  240 70 L 160 85  160 50  240 50  240 70 z " fill="url(#fs2)" /><rect x="160px" y="50px" width="80px" height="60px" fill="none" stroke="#000000" stroke-width="1px" stroke-dashoffset="0" stroke-linejoin="miter" stroke-miterlimit="10" /><text x="166px" y="80px" font-family="Arial" font-size="10pt" text-decoration="underline" fill="#000000">attackingRunMode</text><line x1="200px" y1="110px" x2="200px" y2="585px" stroke="#000000" stroke-width="1px" stroke-dasharray="10,10" stroke-dashoffset="0" stroke-linejoin="miter" stroke-miterlimit="10" /><rect x="190px" y="136px" width="20px" height="386px" fill="url(#fs1)" /><path d="M 190 361.1667 C 190 307.8712  198.9543 264.6667  210 264.6666 L 190 361.1667  190 136  210 136  210 264.6667 z " fill="url(#fs2)" /><rect x="190px" y="136px" width="20px" height="386px" fill="none" stroke="#000000" stroke-width="1px" stroke-dashoffset="0" stroke-linejoin="miter" stroke-miterlimit="10" /><line x1="58px" y1="156px" x2="190px" y2="156px" stroke="#000000" stroke-width="1px" stroke-dashoffset="0" stroke-linejoin="miter" stroke-miterlimit="10" /><polygon points="190,156 171,147 171,164 " fill="#000000" /><text x="91px" y="155px" font-family="Arial" font-size="10pt" fill="#000000">processTap</text><line x1="58px" y1="208px" x2="190px" y2="208px" stroke="#000000" stroke-width="1px" stroke-dashoffset="0" stroke-linejoin="miter" stroke-miterlimit="10" /><polygon points="190,208 171,199 171,216 " fill="#000000" /><text x="88px" y="207px" font-family="Arial" font-size="10pt" fill="#000000">processStep</text><line x1="58px" y1="479px" x2="190px" y2="479px" stroke="#000000" stroke-width="1px" stroke-dashoffset="0" stroke-linejoin="miter" stroke-miterlimit="10" /><polygon points="190,479 171,470 171,487 " fill="#000000" /><text x="106px" y="478px" font-family="Arial" font-size="10pt" fill="#000000">render</text><line x1="190px" y1="436px" x2="58px" y2="436px" stroke="#000000" stroke-width="1px" stroke-dasharray="5,4" stroke-dashoffset="0" stroke-linejoin="miter" stroke-miterlimit="10" /><line x1="58px" y1="436px" x2="76px" y2="444px" stroke="#000000" stroke-width="1px" stroke-dashoffset="0" stroke-linejoin="miter" stroke-miterlimit="10" /><line x1="58px" y1="436px" x2="76px" y2="427px" stroke="#000000" stroke-width="1px" stroke-dashoffset="0" stroke-linejoin="miter" stroke-miterlimit="10" /><text x="65px" y="435px" font-family="Arial" font-size="10pt" fill="#000000">new</text><text x="92px" y="435px" font-family="Arial" font-size="10pt" fill="#000000">or</text><text x="107px" y="435px" font-family="Arial" font-size="10pt" fill="#000000">current</text><text x="151px" y="435px" font-family="Arial" font-size="10pt" fill="#000000">mode</text><line x1="190px" y1="171px" x2="58px" y2="171px" stroke="#000000" stroke-width="1px" stroke-dasharray="5,4" stroke-dashoffset="0" stroke-linejoin="miter" stroke-miterlimit="10" /><line x1="58px" y1="171px" x2="76px" y2="179px" stroke="#000000" stroke-width="1px" stroke-dashoffset="0" stroke-linejoin="miter" stroke-miterlimit="10" /><line x1="58px" y1="171px" x2="76px" y2="162px" stroke="#000000" stroke-width="1px" stroke-dashoffset="0" stroke-linejoin="miter" stroke-miterlimit="10" /><text x="86px" y="170px" font-family="Arial" font-size="10pt" fill="#000000">current</text><text x="130px" y="170px" font-family="Arial" font-size="10pt" fill="#000000">mode</text><rect x="317px" y="50px" width="80px" height="60px" fill="url(#fs1)" /><path d="M 317 85 C 317 76.71573  352.8172 70  397 70 L 317 85  317 50  397 50  397 70 z " fill="url(#fs2)" /><rect x="317px" y="50px" width="80px" height="60px" fill="none" stroke="#000000" stroke-width="1px" stroke-dashoffset="0" stroke-linejoin="miter" stroke-miterlimit="10" /><text x="327px" y="88px" font-family="Arial" font-size="10pt" text-decoration="underline" fill="#000000">battleField</text><line x1="357px" y1="110px" x2="357px" y2="569px" stroke="#000000" stroke-width="1px" stroke-dasharray="10,10" stroke-dashoffset="0" stroke-linejoin="miter" stroke-miterlimit="10" /><rect x="347px" y="130px" width="20px" height="442px" fill="url(#fs1)" /><path d="M 347 387.8334 C 347 326.8059  355.9543 277.3333  367 277.3333 L 347 387.8333  347 130  367 130  367 277.3333 z " fill="url(#fs2)" /><rect x="347px" y="130px" width="20px" height="442px" fill="none" stroke="#000000" stroke-width="1px" stroke-dashoffset="0" stroke-linejoin="miter" stroke-miterlimit="10" /><line x1="210px" y1="494px" x2="347px" y2="494px" stroke="#000000" stroke-width="1px" stroke-dashoffset="0" stroke-linejoin="miter" stroke-miterlimit="10" /><polygon points="347,494 328,485 328,502 " fill="#000000" /><text x="261px" y="493px" font-family="Arial" font-size="10pt" fill="#000000">render</text><line x1="210px" y1="322px" x2="347px" y2="322px" stroke="#000000" stroke-width="1px" stroke-dashoffset="0" stroke-linejoin="miter" stroke-miterlimit="10" /><polygon points="347,322 328,313 328,330 " fill="#000000" /><text x="227px" y="321px" font-family="Arial" font-size="10pt" fill="#000000">processUnitsStep</text><rect x="553px" y="50px" width="80px" height="60px" fill="url(#fs1)" /><path d="M 553 85 C 552.9999 76.71573  588.8171 70  632.9999 70 L 553 85  553 50  633 50  633 70 z " fill="url(#fs2)" /><rect x="553px" y="50px" width="80px" height="60px" fill="none" stroke="#000000" stroke-width="1px" stroke-dashoffset="0" stroke-linejoin="miter" stroke-miterlimit="10" /><text x="572px" y="88px" font-family="Arial" font-size="10pt" text-decoration="underline" fill="#000000">Enemy</text><line x1="593px" y1="110px" x2="593px" y2="575px" stroke="#000000" stroke-width="1px" stroke-dasharray="10,10" stroke-dashoffset="0" stroke-linejoin="miter" stroke-miterlimit="10" /><rect x="583px" y="138px" width="20px" height="374px" fill="url(#fs1)" /><path d="M 583 356.1667 C 582.9999 304.528  591.9543 262.6667  602.9999 262.6666 L 583 356.1667  583 138  603 138  603 262.6667 z " fill="url(#fs2)" /><rect x="583px" y="138px" width="20px" height="374px" fill="none" stroke="#000000" stroke-width="1px" stroke-dashoffset="0" stroke-linejoin="miter" stroke-miterlimit="10" /><rect x="793px" y="50px" width="80px" height="60px" fill="url(#fs1)" /><path d="M 793 85 C 792.9999 76.71573  828.8171 70  872.9999 70 L 793 85  793 50  873 50  873 70 z " fill="url(#fs2)" /><rect x="793px" y="50px" width="80px" height="60px" fill="none" stroke="#000000" stroke-width="1px" stroke-dashoffset="0" stroke-linejoin="miter" stroke-miterlimit="10" /><text x="816px" y="88px" font-family="Arial" font-size="10pt" text-decoration="underline" fill="#000000">Tower</text><line x1="833px" y1="110px" x2="833px" y2="574px" stroke="#000000" stroke-width="1px" stroke-dasharray="10,10" stroke-dashoffset="0" stroke-linejoin="miter" stroke-miterlimit="10" /><rect x="823px" y="140px" width="20px" height="370px" fill="url(#fs1)" /><path d="M 823 355.8333 C 822.9999 304.747  831.9543 263.3333  842.9999 263.3333 L 823 355.8333  823 140  843 140  843 263.3333 z " fill="url(#fs2)" /><rect x="823px" y="140px" width="20px" height="370px" fill="none" stroke="#000000" stroke-width="1px" stroke-dashoffset="0" stroke-linejoin="miter" stroke-miterlimit="10" /><rect x="670px" y="50px" width="80px" height="60px" fill="url(#fs1)" /><path d="M 670 85 C 669.9999 76.71573  705.8171 70  749.9999 70 L 670 85  670 50  750 50  750 70 z " fill="url(#fs2)" /><rect x="670px" y="50px" width="80px" height="60px" fill="none" stroke="#000000" stroke-width="1px" stroke-dashoffset="0" stroke-linejoin="miter" stroke-miterlimit="10" /><text x="696px" y="88px" font-family="Arial" font-size="10pt" text-decoration="underline" fill="#000000">Shot</text><line x1="710px" y1="110px" x2="710px" y2="571px" stroke="#000000" stroke-width="1px" stroke-dasharray="10,10" stroke-dashoffset="0" stroke-linejoin="miter" stroke-miterlimit="10" /><rect x="700px" y="140px" width="20px" height="368px" fill="url(#fs1)" /><path d="M 700 354.6667 C 699.9999 303.8565  708.9543 262.6667  719.9999 262.6666 L 700 354.6667  700 140  720 140  720 262.6667 z " fill="url(#fs2)" /><rect x="700px" y="140px" width="20px" height="368px" fill="none" stroke="#000000" stroke-width="1px" stroke-dashoffset="0" stroke-linejoin="miter" stroke-miterlimit="10" /><rect x="438px" y="50px" width="80px" height="60px" fill="url(#fs1)" /><path d="M 438 85 C 438 76.71573  473.8172 70  517.9999 70 L 438 85  438 50  518 50  518 70 z " fill="url(#fs2)" /><rect x="438px" y="50px" width="80px" height="60px" fill="none" stroke="#000000" stroke-width="1px" stroke-dashoffset="0" stroke-linejoin="miter" stroke-miterlimit="10" /><text x="446px" y="80px" font-family="Arial" font-size="10pt" text-decoration="underline" fill="#000000">EnemyRandomizer</text><line x1="478px" y1="110px" x2="478px" y2="571px" stroke="#000000" stroke-width="1px" stroke-dasharray="10,10" stroke-dashoffset="0" stroke-linejoin="miter" stroke-miterlimit="10" /><rect x="468px" y="136px" width="20px" height="378px" fill="url(#fs1)" /><path d="M 468 356.5 C 468 304.3091  476.9543 262  488 262 L 468 356.5  468 136  488 136  488 262 z " fill="url(#fs2)" /><rect x="468px" y="136px" width="20px" height="378px" fill="none" stroke="#000000" stroke-width="1px" stroke-dashoffset="0" stroke-linejoin="miter" stroke-miterlimit="10" /><line x1="210px" y1="221px" x2="468px" y2="221px" stroke="#000000" stroke-width="1px" stroke-dashoffset="0" stroke-linejoin="miter" stroke-miterlimit="10" /><polygon points="468,221 449,212 449,229 " fill="#000000" /><text x="291px" y="220px" font-family="Arial" font-size="10pt" fill="#000000">getRandomUnits</text><line x1="468px" y1="249px" x2="210px" y2="249px" stroke="#000000" stroke-width="1px" stroke-dasharray="5,4" stroke-dashoffset="0" stroke-linejoin="miter" stroke-miterlimit="10" /><line x1="210px" y1="249px" x2="228px" y2="257px" stroke="#000000" stroke-width="1px" stroke-dashoffset="0" stroke-linejoin="miter" stroke-miterlimit="10" /><line x1="210px" y1="249px" x2="228px" y2="240px" stroke="#000000" stroke-width="1px" stroke-dashoffset="0" stroke-linejoin="miter" stroke-miterlimit="10" /><text x="292px" y="248px" font-family="Arial" font-size="10pt" fill="#000000">randomUnitsList</text><line x1="210px" y1="282px" x2="347px" y2="282px" stroke="#000000" stroke-width="1px" stroke-dashoffset="0" stroke-linejoin="miter" stroke-miterlimit="10" /><polygon points="347,282 328,273 328,290 " fill="#000000" /><text x="242px" y="281px" font-family="Arial" font-size="10pt" fill="#000000">addEnemies</text><line x1="367px" y1="354px" x2="583px" y2="354px" stroke="#000000" stroke-width="1px" stroke-dashoffset="0" stroke-linejoin="miter" stroke-miterlimit="10" /><polygon points="583,354 564,345 564,362 " fill="#000000" /><text x="439px" y="353px" font-family="Arial" font-size="10pt" fill="#000000">processStep</text><line x1="367px" y1="378px" x2="700px" y2="378px" stroke="#000000" stroke-width="1px" stroke-dashoffset="0" stroke-linejoin="miter" stroke-miterlimit="10" /><polygon points="700,378 681,369 681,386 " fill="#000000" /><text x="497px" y="377px" font-family="Arial" font-size="10pt" fill="#000000">processStep</text><line x1="367px" y1="401px" x2="823px" y2="401px" stroke="#000000" stroke-width="1px" stroke-dashoffset="0" stroke-linejoin="miter" stroke-miterlimit="10" /><polygon points="823,401 804,392 804,409 " fill="#000000" /><text x="559px" y="400px" font-family="Arial" font-size="10pt" fill="#000000">processStep</text></svg>